<mxfile host="app.diagrams.net" modified="2022-01-27T04:45:03.265Z" agent="5.0 (Macintosh; Intel Mac OS X 10_15_7) AppleWebKit/537.36 (KHTML, like Gecko) Chrome/97.0.4692.99 Safari/537.36" etag="ocC94IE-7qROELlg-kXM" version="16.4.7" type="github">
  <diagram id="6l8G265YnewpnGdQrtUn" name="Page-1">
    <mxGraphModel dx="1476" dy="804" grid="1" gridSize="10" guides="1" tooltips="1" connect="1" arrows="1" fold="1" page="1" pageScale="1" pageWidth="1100" pageHeight="850" math="0" shadow="0">
      <root>
        <mxCell id="0" />
        <mxCell id="1" parent="0" />
        <mxCell id="qU-XPzfeBRH5I7wSQVbn-8" value="VPC" style="outlineConnect=0;gradientColor=none;html=1;whiteSpace=wrap;fontSize=12;fontStyle=0;shape=mxgraph.aws4.group;grIcon=mxgraph.aws4.group_vpc;strokeColor=#80889D;fillColor=none;verticalAlign=top;align=left;spacingLeft=30;fontColor=#879196;dashed=0;rounded=0;glass=0;dashPattern=1 1;sketch=0;strokeWidth=2;" vertex="1" parent="1">
          <mxGeometry x="120" y="120" width="350" height="550" as="geometry" />
        </mxCell>
        <mxCell id="qU-XPzfeBRH5I7wSQVbn-7" value="Availability Zone - &lt;b&gt;A&lt;/b&gt;" style="outlineConnect=0;gradientColor=none;html=1;whiteSpace=wrap;fontSize=12;fontStyle=0;shape=mxgraph.aws4.group;grIcon=mxgraph.aws4.group_availability_zone;strokeColor=#80889D;fillColor=none;verticalAlign=top;align=left;spacingLeft=30;fontColor=#545B64;rounded=0;glass=0;sketch=0;dashed=1;dashPattern=1 1;" vertex="1" parent="1">
          <mxGeometry x="160" y="160" width="270" height="480" as="geometry" />
        </mxCell>
        <mxCell id="mqh8PAdhAtJ8gHZrtwG4-24" value="VPC" style="outlineConnect=0;gradientColor=none;html=1;whiteSpace=wrap;fontSize=12;fontStyle=0;shape=mxgraph.aws4.group;grIcon=mxgraph.aws4.group_vpc;strokeColor=#80889D;fillColor=none;verticalAlign=top;align=left;spacingLeft=30;fontColor=#879196;dashed=0;rounded=0;glass=0;dashPattern=1 1;sketch=0;strokeWidth=2;" parent="1" vertex="1">
          <mxGeometry x="610" y="120" width="350" height="550" as="geometry" />
        </mxCell>
        <mxCell id="mqh8PAdhAtJ8gHZrtwG4-26" value="Availability Zone -&amp;nbsp;&lt;b&gt;B&lt;/b&gt;" style="outlineConnect=0;gradientColor=none;html=1;whiteSpace=wrap;fontSize=12;fontStyle=0;shape=mxgraph.aws4.group;grIcon=mxgraph.aws4.group_availability_zone;strokeColor=#80889D;fillColor=none;verticalAlign=top;align=left;spacingLeft=30;fontColor=#545B64;rounded=0;glass=0;sketch=0;dashed=1;dashPattern=1 1;perimeterSpacing=0;" parent="1" vertex="1">
          <mxGeometry x="650" y="160" width="270" height="480" as="geometry" />
        </mxCell>
        <mxCell id="DdyiQRmM22uEdhr_2QQl-10" value="" style="edgeStyle=orthogonalEdgeStyle;rounded=0;orthogonalLoop=1;jettySize=auto;html=1;startArrow=block;startFill=1;endArrow=block;endFill=1;strokeColor=#4D4D4D;" parent="1" target="mqh8PAdhAtJ8gHZrtwG4-24" edge="1">
          <mxGeometry relative="1" as="geometry">
            <mxPoint x="470" y="189" as="sourcePoint" />
            <mxPoint x="590" y="220" as="targetPoint" />
            <Array as="points">
              <mxPoint x="600" y="189" />
              <mxPoint x="600" y="189" />
            </Array>
          </mxGeometry>
        </mxCell>
        <mxCell id="mqh8PAdhAtJ8gHZrtwG4-6" value="" style="orthogonalLoop=1;jettySize=auto;html=1;startArrow=oval;startFill=0;sketch=0;dashed=1;strokeColor=#333333;dashPattern=1 1;edgeStyle=orthogonalEdgeStyle;curved=1;" parent="1" edge="1">
          <mxGeometry relative="1" as="geometry">
            <mxPoint x="840" y="348" as="sourcePoint" />
            <mxPoint x="320" y="381" as="targetPoint" />
            <Array as="points">
              <mxPoint x="560" y="348" />
              <mxPoint x="560" y="381" />
            </Array>
          </mxGeometry>
        </mxCell>
        <mxCell id="mqh8PAdhAtJ8gHZrtwG4-9" value="&lt;font style=&quot;font-size: 14px&quot;&gt;&lt;b&gt;AWS Traffic Mirroring&lt;/b&gt;&lt;/font&gt;" style="text;html=1;resizable=0;autosize=1;align=center;verticalAlign=middle;points=[];fillColor=none;strokeColor=none;rounded=0;glass=0;dashed=1;dashPattern=1 1;sketch=0;" parent="1" vertex="1">
          <mxGeometry x="460" y="60" width="160" height="20" as="geometry" />
        </mxCell>
        <mxCell id="mqh8PAdhAtJ8gHZrtwG4-11" value="&lt;font style=&quot;font-size: 14px&quot;&gt;Network traffic is diverted &lt;br&gt;and copied to another&lt;br&gt;EC2 instance.&lt;/font&gt;" style="text;html=1;resizable=0;autosize=1;align=left;verticalAlign=middle;points=[];fillColor=none;strokeColor=none;rounded=0;glass=0;dashed=1;dashPattern=1 1;sketch=0;" parent="1" vertex="1">
          <mxGeometry x="215" y="500" width="170" height="50" as="geometry" />
        </mxCell>
        <mxCell id="mqh8PAdhAtJ8gHZrtwG4-17" value="&lt;font color=&quot;#333333&quot;&gt;&lt;b&gt;VPC&lt;br&gt;Peering&lt;/b&gt;&lt;/font&gt;" style="outlineConnect=0;dashed=0;verticalLabelPosition=bottom;verticalAlign=top;align=center;html=1;shape=mxgraph.aws3.vpc_peering;fillColor=#F58536;gradientColor=none;rounded=0;glass=0;dashPattern=1 1;sketch=0;strokeColor=#FF0000;strokeWidth=2;" parent="1" vertex="1">
          <mxGeometry x="520" y="168" width="40" height="42" as="geometry" />
        </mxCell>
        <mxCell id="mqh8PAdhAtJ8gHZrtwG4-21" value="" style="outlineConnect=0;fontColor=#232F3E;gradientColor=none;fillColor=#5A30B5;strokeColor=none;dashed=0;verticalLabelPosition=bottom;verticalAlign=top;align=center;html=1;fontSize=12;fontStyle=0;aspect=fixed;pointerEvents=1;shape=mxgraph.aws4.elastic_network_interface;rounded=0;glass=0;dashPattern=1 1;sketch=0;" parent="1" vertex="1">
          <mxGeometry x="757" y="218" width="48" height="48" as="geometry" />
        </mxCell>
        <mxCell id="mqh8PAdhAtJ8gHZrtwG4-30" value="" style="outlineConnect=0;fontColor=#232F3E;gradientColor=none;fillColor=#5A30B5;strokeColor=none;dashed=0;verticalLabelPosition=bottom;verticalAlign=top;align=center;html=1;fontSize=12;fontStyle=0;aspect=fixed;pointerEvents=1;shape=mxgraph.aws4.elastic_network_interface;rounded=0;glass=0;dashPattern=1 1;sketch=0;" parent="1" vertex="1">
          <mxGeometry x="757" y="508" width="48" height="48" as="geometry" />
        </mxCell>
        <mxCell id="qU-XPzfeBRH5I7wSQVbn-1" value="" style="edgeStyle=orthogonalEdgeStyle;rounded=0;orthogonalLoop=1;jettySize=auto;html=1;startArrow=none;startFill=0;endArrow=block;endFill=1;strokeColor=#4D4D4D;" edge="1" parent="1">
          <mxGeometry relative="1" as="geometry">
            <mxPoint x="840" y="390" as="sourcePoint" />
            <mxPoint x="1010" y="390" as="targetPoint" />
            <Array as="points">
              <mxPoint x="880" y="390" />
            </Array>
          </mxGeometry>
        </mxCell>
        <mxCell id="qU-XPzfeBRH5I7wSQVbn-2" value="" style="group" vertex="1" connectable="0" parent="1">
          <mxGeometry x="1015" y="370" width="54" height="54" as="geometry" />
        </mxCell>
        <mxCell id="DdyiQRmM22uEdhr_2QQl-6" value="" style="aspect=fixed;perimeter=ellipsePerimeter;html=1;align=center;shadow=0;dashed=0;spacingTop=3;image;image=img/lib/active_directory/internet_globe.svg;" parent="qU-XPzfeBRH5I7wSQVbn-2" vertex="1">
          <mxGeometry x="4.5" width="38.57142857142858" height="38.57142857142858" as="geometry" />
        </mxCell>
        <mxCell id="mqh8PAdhAtJ8gHZrtwG4-2" value="&lt;font color=&quot;#666666&quot;&gt;Internet&lt;/font&gt;" style="text;html=1;resizable=0;autosize=1;align=center;verticalAlign=middle;points=[];fillColor=none;strokeColor=none;rounded=0;" parent="qU-XPzfeBRH5I7wSQVbn-2" vertex="1">
          <mxGeometry y="38.57142857142858" width="60" height="20" as="geometry" />
        </mxCell>
        <mxCell id="mqh8PAdhAtJ8gHZrtwG4-8" value="" style="whiteSpace=wrap;html=1;aspect=fixed;glass=0;dashed=1;strokeWidth=2;sketch=0;dashPattern=1 1;rounded=0;strokeColor=none;fillColor=#A3E85D;gradientDirection=radial;gradientColor=#66CC00;" parent="1" vertex="1">
          <mxGeometry x="679" y="210" width="68" height="68" as="geometry" />
        </mxCell>
        <mxCell id="DdyiQRmM22uEdhr_2QQl-5" value="" style="points=[[0,0,0],[0.25,0,0],[0.5,0,0],[0.75,0,0],[1,0,0],[0,1,0],[0.25,1,0],[0.5,1,0],[0.75,1,0],[1,1,0],[0,0.25,0],[0,0.5,0],[0,0.75,0],[1,0.25,0],[1,0.5,0],[1,0.75,0]];outlineConnect=0;fontColor=#232F3E;gradientColor=#F78E04;gradientDirection=north;fillColor=#D05C17;strokeColor=#ffffff;dashed=0;verticalLabelPosition=bottom;verticalAlign=top;align=center;html=1;fontSize=12;fontStyle=0;aspect=fixed;shape=mxgraph.aws4.resourceIcon;resIcon=mxgraph.aws4.compute;" parent="1" vertex="1">
          <mxGeometry x="683" y="215" width="60" height="60" as="geometry" />
        </mxCell>
        <mxCell id="DdyiQRmM22uEdhr_2QQl-8" value="&lt;b&gt;Suspicious&lt;/b&gt;&lt;br&gt;&lt;font color=&quot;#808080&quot;&gt;EC2&lt;br&gt;(source)&lt;br&gt;&lt;/font&gt;" style="text;html=1;resizable=0;autosize=1;align=center;verticalAlign=middle;points=[];fillColor=none;strokeColor=none;rounded=0;glass=0;" parent="1" vertex="1">
          <mxGeometry x="673" y="277" width="80" height="50" as="geometry" />
        </mxCell>
        <mxCell id="mqh8PAdhAtJ8gHZrtwG4-32" value="" style="group" parent="1" vertex="1" connectable="0">
          <mxGeometry x="673" y="498" width="80" height="117" as="geometry" />
        </mxCell>
        <mxCell id="mqh8PAdhAtJ8gHZrtwG4-33" value="" style="whiteSpace=wrap;html=1;aspect=fixed;glass=0;dashed=1;strokeWidth=2;sketch=0;dashPattern=1 1;rounded=0;strokeColor=none;fillColor=#A3E85D;gradientDirection=radial;gradientColor=#66CC00;" parent="mqh8PAdhAtJ8gHZrtwG4-32" vertex="1">
          <mxGeometry x="6" width="68" height="68" as="geometry" />
        </mxCell>
        <mxCell id="mqh8PAdhAtJ8gHZrtwG4-34" value="" style="points=[[0,0,0],[0.25,0,0],[0.5,0,0],[0.75,0,0],[1,0,0],[0,1,0],[0.25,1,0],[0.5,1,0],[0.75,1,0],[1,1,0],[0,0.25,0],[0,0.5,0],[0,0.75,0],[1,0.25,0],[1,0.5,0],[1,0.75,0]];outlineConnect=0;fontColor=#232F3E;gradientColor=#F78E04;gradientDirection=north;fillColor=#D05C17;strokeColor=#ffffff;dashed=0;verticalLabelPosition=bottom;verticalAlign=top;align=center;html=1;fontSize=12;fontStyle=0;aspect=fixed;shape=mxgraph.aws4.resourceIcon;resIcon=mxgraph.aws4.compute;" parent="mqh8PAdhAtJ8gHZrtwG4-32" vertex="1">
          <mxGeometry x="10" y="5" width="60" height="60" as="geometry" />
        </mxCell>
        <mxCell id="mqh8PAdhAtJ8gHZrtwG4-35" value="&lt;b&gt;Suspicious&lt;/b&gt;&lt;br&gt;&lt;font color=&quot;#808080&quot;&gt;EC2&lt;br&gt;(source)&lt;br&gt;&lt;/font&gt;" style="text;html=1;resizable=0;autosize=1;align=center;verticalAlign=middle;points=[];fillColor=none;strokeColor=none;rounded=0;glass=0;" parent="mqh8PAdhAtJ8gHZrtwG4-32" vertex="1">
          <mxGeometry y="67" width="80" height="50" as="geometry" />
        </mxCell>
        <mxCell id="mqh8PAdhAtJ8gHZrtwG4-14" value="" style="edgeStyle=orthogonalEdgeStyle;rounded=0;orthogonalLoop=1;jettySize=auto;html=1;startArrow=block;startFill=1;endArrow=block;endFill=1;strokeColor=#4D4D4D;" parent="1" edge="1">
          <mxGeometry relative="1" as="geometry">
            <mxPoint x="803.9994545826421" y="242" as="sourcePoint" />
            <mxPoint x="803.9994545826421" y="532" as="targetPoint" />
            <Array as="points">
              <mxPoint x="840" y="242" />
              <mxPoint x="840" y="532" />
            </Array>
          </mxGeometry>
        </mxCell>
        <mxCell id="DdyiQRmM22uEdhr_2QQl-15" value="&lt;font style=&quot;font-size: 10px&quot; color=&quot;#808080&quot;&gt;Network&amp;nbsp;&lt;br&gt;Traffic&lt;/font&gt;" style="text;html=1;resizable=0;autosize=1;align=center;verticalAlign=middle;points=[];fillColor=none;strokeColor=none;rounded=0;horizontal=1;" parent="1" vertex="1">
          <mxGeometry x="849" y="390" width="60" height="30" as="geometry" />
        </mxCell>
        <mxCell id="qU-XPzfeBRH5I7wSQVbn-5" value="&lt;span style=&quot;font-size: 10px&quot;&gt;&lt;b&gt;&lt;font color=&quot;#1a1a1a&quot;&gt;ENI&lt;/font&gt;&lt;/b&gt;&lt;/span&gt;" style="text;html=1;resizable=0;autosize=1;align=center;verticalAlign=middle;points=[];fillColor=none;strokeColor=none;rounded=0;horizontal=1;" vertex="1" parent="1">
          <mxGeometry x="766" y="266" width="30" height="20" as="geometry" />
        </mxCell>
        <mxCell id="qU-XPzfeBRH5I7wSQVbn-6" value="&lt;span style=&quot;font-size: 10px&quot;&gt;&lt;b&gt;&lt;font color=&quot;#1a1a1a&quot;&gt;ENI&lt;/font&gt;&lt;/b&gt;&lt;/span&gt;" style="text;html=1;resizable=0;autosize=1;align=center;verticalAlign=middle;points=[];fillColor=none;strokeColor=none;rounded=0;horizontal=1;" vertex="1" parent="1">
          <mxGeometry x="766" y="556" width="30" height="20" as="geometry" />
        </mxCell>
        <mxCell id="mqh8PAdhAtJ8gHZrtwG4-27" value="" style="outlineConnect=0;dashed=0;verticalLabelPosition=bottom;verticalAlign=top;align=center;html=1;shape=mxgraph.aws3.internet_gateway;fillColor=#F58534;gradientColor=none;rounded=0;glass=0;dashPattern=1 1;sketch=0;strokeColor=#FF0000;strokeWidth=2;" parent="1" vertex="1">
          <mxGeometry x="945" y="374.5" width="30" height="31" as="geometry" />
        </mxCell>
        <mxCell id="qU-XPzfeBRH5I7wSQVbn-9" value="" style="group" vertex="1" connectable="0" parent="1">
          <mxGeometry x="260" y="360" width="60" height="110" as="geometry" />
        </mxCell>
        <mxCell id="DdyiQRmM22uEdhr_2QQl-14" value="" style="points=[[0,0,0],[0.25,0,0],[0.5,0,0],[0.75,0,0],[1,0,0],[0,1,0],[0.25,1,0],[0.5,1,0],[0.75,1,0],[1,1,0],[0,0.25,0],[0,0.5,0],[0,0.75,0],[1,0.25,0],[1,0.5,0],[1,0.75,0]];outlineConnect=0;fontColor=#232F3E;gradientColor=#F78E04;gradientDirection=north;fillColor=#D05C17;strokeColor=#ffffff;dashed=0;verticalLabelPosition=bottom;verticalAlign=top;align=center;html=1;fontSize=12;fontStyle=0;aspect=fixed;shape=mxgraph.aws4.resourceIcon;resIcon=mxgraph.aws4.compute;" parent="qU-XPzfeBRH5I7wSQVbn-9" vertex="1">
          <mxGeometry width="60" height="60" as="geometry" />
        </mxCell>
        <mxCell id="mqh8PAdhAtJ8gHZrtwG4-3" value="&lt;b&gt;Mirrored&lt;/b&gt;&lt;br&gt;&lt;font color=&quot;#808080&quot;&gt;EC2&lt;br&gt;(target)&lt;br&gt;&lt;/font&gt;" style="text;html=1;resizable=0;autosize=1;align=center;verticalAlign=middle;points=[];fillColor=none;strokeColor=none;rounded=0;" parent="qU-XPzfeBRH5I7wSQVbn-9" vertex="1">
          <mxGeometry y="60" width="60" height="50" as="geometry" />
        </mxCell>
        <mxCell id="qU-XPzfeBRH5I7wSQVbn-10" value="" style="orthogonalLoop=1;jettySize=auto;html=1;startArrow=oval;startFill=0;sketch=0;dashed=1;strokeColor=#333333;dashPattern=1 1;edgeStyle=orthogonalEdgeStyle;curved=1;" edge="1" parent="1">
          <mxGeometry relative="1" as="geometry">
            <mxPoint x="840" y="438" as="sourcePoint" />
            <mxPoint x="320" y="398" as="targetPoint" />
            <Array as="points">
              <mxPoint x="680" y="438" />
              <mxPoint x="680" y="398" />
            </Array>
          </mxGeometry>
        </mxCell>
        <mxCell id="mqh8PAdhAtJ8gHZrtwG4-12" style="sketch=0;orthogonalLoop=1;jettySize=auto;html=1;startArrow=none;startFill=0;strokeColor=#FF8000;strokeWidth=2;exitX=0.872;exitY=0;exitDx=0;exitDy=0;exitPerimeter=0;" parent="1" edge="1" source="mqh8PAdhAtJ8gHZrtwG4-11">
          <mxGeometry relative="1" as="geometry">
            <mxPoint x="350" y="405" as="targetPoint" />
            <mxPoint x="394.49" y="482.3499999999999" as="sourcePoint" />
            <Array as="points">
              <mxPoint x="384" y="430" />
            </Array>
          </mxGeometry>
        </mxCell>
      </root>
    </mxGraphModel>
  </diagram>
</mxfile>
